<svg xmlns="http://www.w3.org/2000/svg" viewBox="0 0 566 170"><defs><style>.a,.b{fill:#fff;}.a{stroke:#4aa3df;stroke-width:3px;}.a,.c{stroke-linejoin:round;}.c,.e{fill:none;}.d,.f{stroke:none;}.f{fill:#4aa3df;}</style></defs><g transform="translate(-177 -3151)"><g class="a" transform="translate(180 3154)"><rect class="d" width="560" height="134" rx="3"/><rect class="e" x="-1.5" y="-1.5" width="563" height="137" rx="4.5"/></g><path class="b" d="M276,3285h24l-24,34Z"/><g class="c"><path class="d" d="M276,3288H183a3,3,0,0,1-3-3V3157a3,3,0,0,1,3-3H737a3,3,0,0,1,3,3v128a3,3,0,0,1-3,3H297.882L276,3319Z"/><path class="f" d="M 276.0003356933594 3318.999267578125 L 297.88232421875 3287.999755859375 L 737.0001220703125 3287.999755859375 C 738.6570434570313 3287.999755859375 739.9998168945313 3286.656982421875 739.9998168945313 3285 L 739.9998168945313 3157.000244140625 C 739.9998168945313 3155.34326171875 738.6570434570313 3153.999755859375 737.0001220703125 3153.999755859375 L 182.9997711181641 3153.999755859375 C 181.3428344726563 3153.999755859375 179.9999847412109 3155.34326171875 179.9999847412109 3157.000244140625 L 179.9999847412109 3285 C 179.9999847412109 3286.656982421875 181.3428344726563 3287.999755859375 182.9997711181641 3287.999755859375 L 276.0003356933594 3287.999755859375 L 276.0003356933594 3318.999267578125 M 276.0001525878906 3320.99951171875 C 275.7986145019531 3320.99951171875 275.5948486328125 3320.968994140625 275.3953247070313 3320.905517578125 C 274.5646362304688 3320.641845703125 274.0003356933594 3319.870849609375 274.0003356933594 3318.999267578125 L 274.0003356933594 3289.999755859375 L 182.9997711181641 3289.999755859375 C 180.2429046630859 3289.999755859375 177.9999847412109 3287.7568359375 177.9999847412109 3285 L 177.9999847412109 3157.000244140625 C 177.9999847412109 3154.242919921875 180.2429046630859 3151.999755859375 182.9997711181641 3151.999755859375 L 737.0001220703125 3151.999755859375 C 739.7569580078125 3151.999755859375 741.9998168945313 3154.242919921875 741.9998168945313 3157.000244140625 L 741.9998168945313 3285 C 741.9998168945313 3287.7568359375 739.7569580078125 3289.999755859375 737.0001220703125 3289.999755859375 L 298.9186401367188 3289.999755859375 L 277.63427734375 3320.152587890625 C 277.2524108886719 3320.693603515625 276.6377258300781 3320.99951171875 276.0001525878906 3320.99951171875 Z"/></g></g></svg>