<svg xmlns="http://www.w3.org/2000/svg" viewBox="0 0 134 134"><defs><style>.a{fill:#f4f4f4;}.b{fill:#00c6ff;}</style></defs><g transform="translate(-926 -940)"><circle class="a" cx="67" cy="67" r="67" transform="translate(926 940)"/><path class="b" d="M1007.982,1037c-4.016,0-9.221-2.967-14.48-7.932-5.259,4.964-10.463,7.932-14.48,7.932a6.508,6.508,0,0,1-3.593-.993c-3.173-2.057-4.173-7-2.817-13.912.246-1.248.581-2.546.965-3.862-1.3-.412-2.55-.852-3.71-1.342-6.441-2.718-9.942-6.314-9.86-10.121.1-4.536,5.251-8.387,13.348-10.7-.327-1.2-.614-2.366-.823-3.48a2.382,2.382,0,0,1-.5-4.417c-.14-4.314.948-7.585,3.393-9.167a6.486,6.486,0,0,1,3.593-1c4.018,0,9.221,2.969,14.48,7.933,5.259-4.964,10.464-7.933,14.481-7.933a6.488,6.488,0,0,1,3.593,1c3.885,2.516,4.341,9.292,1.87,17.777,1.287.412,2.533.851,3.69,1.337a30.2,30.2,0,0,1,3.865,1.948,2.317,2.317,0,0,1,.971-.215,2.372,2.372,0,0,1,2.363,2.384,2.276,2.276,0,0,1-.032.333,7.767,7.767,0,0,1,2.692,5.669c-.1,4.54-5.256,8.389-13.359,10.71.292,1.069.558,2.126.76,3.148,1.356,6.915.355,11.856-2.817,13.912a6.506,6.506,0,0,1-3.593.993Zm-7.339-15.914a70.085,70.085,0,0,1-6.035,6.906c4.935,4.646,9.769,7.462,13.372,7.467h0a5,5,0,0,0,2.769-.755c2.57-1.664,3.349-6.15,2.139-12.309-.194-.989-.451-2.016-.739-3.052A65.1,65.1,0,0,1,1000.643,1021.082Zm-26.533,1.309c-1.209,6.16-.428,10.645,2.141,12.309a4.993,4.993,0,0,0,2.768.755c3.6,0,8.438-2.822,13.371-7.467a72.083,72.083,0,0,1-6.26-7.2,66.673,66.673,0,0,1-11.1-2.1C974.669,1019.95,974.344,1021.195,974.111,1022.391Zm19.39,4.509a67.588,67.588,0,0,0,5.095-5.7q-1.737.074-3.537.075h0c-.61,0-1.229-.006-1.848-.019-1.686-.04-3.344-.14-4.978-.271A67.977,67.977,0,0,0,993.5,1026.9Zm-6.353-31.48c-1.318,1.739-2.6,3.568-3.823,5.492-1.383,2.181-2.629,4.382-3.751,6.576,1.114,2.191,2.355,4.4,3.751,6.6,1.161,1.834,2.382,3.577,3.632,5.242,2.046.207,4.148.336,6.282.379,2.261.05,4.472.006,6.615-.125,1.318-1.741,2.6-3.571,3.821-5.5,1.4-2.2,2.637-4.407,3.748-6.6-1.12-2.192-2.367-4.4-3.748-6.578-1.164-1.831-2.384-3.577-3.633-5.24-2.046-.206-4.146-.334-6.282-.379-.606-.013-1.213-.021-1.814-.021C990.313,995.272,988.71,995.323,987.147,995.42Zm17.816,19.5q-1.489,2.346-3.07,4.5a62.774,62.774,0,0,0,9.816-1.614,63.452,63.452,0,0,0-3.42-8.615C1007.285,1011.091,1006.18,1013,1004.963,1014.922Zm-29.487,2.285a63.375,63.375,0,0,0,9.383,1.87c-.965-1.335-1.912-2.713-2.821-4.155-1.218-1.92-2.324-3.832-3.327-5.722A63.631,63.631,0,0,0,975.477,1017.207Zm33.674-9.7a66.344,66.344,0,0,1,4.037,9.914c7.371-2.108,12.2-5.456,12.275-9.22a6.06,6.06,0,0,0-1.919-4.2,2.329,2.329,0,0,1-1.574.618,2.375,2.375,0,0,1-2.362-2.386,2.417,2.417,0,0,1,.249-1.05,29,29,0,0,0-3.313-1.642c-1.111-.469-2.313-.889-3.554-1.287A66.873,66.873,0,0,1,1009.151,1007.5Zm-47.615-.7c-.067,3.086,3.184,6.239,8.919,8.66,1.113.47,2.317.894,3.56,1.29a67.538,67.538,0,0,1,3.833-9.242,66.594,66.594,0,0,1-4.065-9.919C966.424,999.692,961.616,1003.039,961.536,1006.8Zm43.428-6.721c1.2,1.892,2.309,3.8,3.318,5.706a65.71,65.71,0,0,0,3.217-8,63.688,63.688,0,0,0-9.36-1.866Q1003.589,997.923,1004.963,1000.078Zm-29.643-2.9a64.518,64.518,0,0,0,3.4,8.608c1.011-1.907,2.118-3.814,3.318-5.706q1.488-2.344,3.069-4.506A63.414,63.414,0,0,0,975.32,997.177Zm19.288-10.164a70.424,70.424,0,0,1,6.26,7.2,66.972,66.972,0,0,1,11.072,2.1c2.247-7.726,2.042-13.917-1.191-16.009a5.008,5.008,0,0,0-2.768-.751C1004.378,979.548,999.543,982.364,994.608,987.013ZM976.252,980.3c-1.939,1.254-2.774,4-2.666,7.638a2.391,2.391,0,0,1,.527,4.5c.2,1.036.445,2.108.756,3.223a65.727,65.727,0,0,1,11.488-1.741,70.5,70.5,0,0,1,6.035-6.9c-4.935-4.648-9.769-7.465-13.372-7.465A5.006,5.006,0,0,0,976.252,980.3Zm17.543,13.448c1.687.037,3.344.139,4.978.272A67.851,67.851,0,0,0,993.5,988.1a68.513,68.513,0,0,0-5.1,5.7c1.16-.047,2.342-.074,3.542-.074C992.559,993.726,993.176,993.733,993.794,993.747Zm-8.2,13.753a7.905,7.905,0,1,1,7.9,7.989A7.954,7.954,0,0,1,985.6,1007.5Zm1.527,0a6.375,6.375,0,1,0,6.376-6.442A6.418,6.418,0,0,0,987.125,1007.5Z"/></g></svg>