<svg xmlns="http://www.w3.org/2000/svg" viewBox="0 0 134 134"><defs><style>.a{fill:#f4f4f4;}.b{fill:#00c6ff;}</style></defs><g transform="translate(-238 -940)"><circle class="a" cx="67" cy="67" r="67" transform="translate(238 940)"/><path class="b" d="M318,978H293A2.962,2.962,0,0,0,290,980.9V1033.1A2.961,2.961,0,0,0,293,1036h25a2.961,2.961,0,0,0,3.008-2.9V980.9A2.961,2.961,0,0,0,318,978Zm-16.862,4.517h8.727v.615h-8.727Zm4.364,50.446a1.686,1.686,0,1,1,1.683-1.688A1.686,1.686,0,0,1,305.5,1032.96Zm13.453-6.317h-26.9V986.626h26.9Z"/></g></svg>